<svg data-v-423bf9ae="" xmlns="http://www.w3.org/2000/svg" viewBox="0 0 233.47988726755614 60" class="font"><!----><!----><!----><g data-v-423bf9ae="" id="26080160-23ba-46c5-a888-d4480df538b6" fill="white" transform="matrix(3.76884388923645,0,0,3.76884388923645,-2.2613041400909424,-52.87687683105469)"><path d="M14.83 25.55L14.48 26.25L9.94 26.25L9.94 25.68L11.26 24.64L11.26 17.30L7.62 26.25L6.68 26.25L3.04 17.25L3.04 24.86L4.54 25.55L4.19 26.25L0.77 26.25L0.77 25.68L2.09 24.64L2.09 16.66L0.60 15.95L0.95 15.25L4.34 15.25L7.71 23.65L11.07 15.25L14.64 15.25L14.64 15.82L13.31 16.86L13.31 25.09L14.83 25.55ZM24.08 25.55L23.73 26.25L20.86 26.25L20.86 25.03L19.28 26.28Q19.00 26.39 18.58 26.39L18.58 26.39Q17.32 26.39 16.75 25.77Q16.18 25.14 16.18 24.26L16.18 24.26Q16.18 23.74 16.54 23.25Q16.90 22.75 17.56 22.30L17.56 22.30L20.86 22.30L20.86 21.66Q20.86 20.06 19.15 20.06L19.15 20.06Q18.26 20.06 16.86 21L16.86 21L16.44 20.37L18.42 18.79Q19.01 18.63 19.89 18.63L19.89 18.63Q21.28 18.63 22.05 19.29Q22.82 19.95 22.82 21.21L22.82 21.21L22.82 25.06L24.08 25.55ZM19.12 24.92Q19.91 24.92 20.86 24.21L20.86 24.21L20.86 23.02L18.47 23.02Q18.19 23.35 18.19 23.83L18.19 23.83Q18.19 24.29 18.45 24.61Q18.70 24.92 19.12 24.92L19.12 24.92ZM34.05 25.55L33.70 26.25L30.83 26.25L30.83 25.23L29.51 26.28Q29.06 26.39 28.45 26.39L28.45 26.39Q27.52 26.39 26.79 25.91Q26.05 25.42 25.64 24.59Q25.23 23.76 25.23 22.75L25.23 22.75Q25.23 21.66 25.91 20.71Q26.59 19.77 27.61 19.20Q28.63 18.63 29.58 18.63L29.58 18.63Q30.25 18.63 30.83 19.01L30.83 19.01L30.83 16.44L29.58 15.58L29.58 15.01L32.12 14.03L32.79 14.03L32.79 25.09L34.05 25.55ZM29.22 24.91Q29.64 24.91 30.02 24.80Q30.39 24.70 30.83 24.42L30.83 24.42L30.83 21.42Q30.74 20.79 30.22 20.38Q29.69 19.98 28.77 19.98L28.77 19.98Q27.33 19.98 27.33 22.09L27.33 22.09Q27.33 23.30 27.82 24.11Q28.31 24.92 29.22 24.92L29.22 24.92L29.22 24.91ZM44.06 25.55L43.71 26.25L40.84 26.25L40.84 25.23L39.52 26.28Q39.07 26.39 38.46 26.39L38.46 26.39Q37.53 26.39 36.80 25.91Q36.06 25.42 35.65 24.59Q35.24 23.76 35.24 22.75L35.24 22.75Q35.24 21.66 35.92 20.71Q36.60 19.77 37.62 19.20Q38.64 18.63 39.59 18.63L39.59 18.63Q40.26 18.63 40.84 19.01L40.84 19.01L40.84 16.44L39.59 15.58L39.59 15.01L42.13 14.03L42.80 14.03L42.80 25.09L44.06 25.55ZM39.23 24.91Q39.65 24.91 40.03 24.80Q40.40 24.70 40.84 24.42L40.84 24.42L40.84 21.42Q40.75 20.79 40.23 20.38Q39.70 19.98 38.78 19.98L38.78 19.98Q37.34 19.98 37.34 22.09L37.34 22.09Q37.34 23.30 37.83 24.11Q38.32 24.92 39.23 24.92L39.23 24.92L39.23 24.91ZM49.60 18.63Q50.57 18.63 51.34 19.12Q52.11 19.60 52.53 20.43Q52.96 21.25 52.96 22.26L52.96 22.26Q52.96 23.35 52.28 24.30Q51.60 25.26 50.58 25.82Q49.56 26.39 48.61 26.39L48.61 26.39Q47.64 26.39 46.88 25.91Q46.12 25.42 45.68 24.59Q45.25 23.76 45.25 22.75L45.25 22.75Q45.25 21.66 45.93 20.71Q46.61 19.77 47.63 19.20Q48.65 18.63 49.60 18.63L49.60 18.63ZM48.79 19.98Q48.09 19.98 47.73 20.51Q47.38 21.04 47.38 22.08L47.38 22.08Q47.38 23.35 47.91 24.19Q48.44 25.03 49.42 25.03L49.42 25.03Q50.85 25.03 50.85 22.92L50.85 22.92Q50.85 21.66 50.32 20.82Q49.78 19.98 48.79 19.98L48.79 19.98ZM62.54 19.91L60.97 19.91Q61.31 20.44 61.31 21.04L61.31 21.04Q61.31 21.95 60.57 22.77Q59.84 23.59 58.76 23.94L58.76 23.94Q58.39 24.35 58.39 24.74L58.39 24.74Q58.39 24.96 58.73 25.15Q59.07 25.34 59.79 25.65L59.79 25.65Q60.79 26.05 61.31 26.40Q61.84 26.74 61.84 27.22L61.84 27.22Q61.84 27.65 61.29 28.31Q60.75 28.97 59.93 29.46Q59.11 29.95 58.35 29.95L58.35 29.95Q57.53 29.95 56.42 29.68Q55.31 29.41 54.57 29.15L54.57 29.15L54.57 26.85L55.24 26.85Q56.00 27.80 56.77 28.30Q57.54 28.80 58.51 28.80L58.51 28.80Q58.86 28.80 59.14 28.66Q59.43 28.53 59.59 28.34Q59.75 28.14 59.75 27.96L59.75 27.96Q59.75 27.61 59.33 27.34Q58.91 27.06 58.07 26.70L58.07 26.70Q57.22 26.33 56.79 26.06Q56.36 25.79 56.36 25.42L56.36 25.42Q56.36 25.09 56.84 24.74Q57.32 24.39 57.96 24.12L57.96 24.12Q57.68 24.15 57.54 24.15L57.54 24.15Q56.76 24.15 56.10 23.82Q55.45 23.49 55.08 22.93Q54.70 22.37 54.70 21.73L54.70 21.73Q54.70 20.96 55.25 20.24Q55.80 19.52 56.69 19.07Q57.57 18.63 58.49 18.63L58.49 18.63Q59.53 18.63 60.31 19.19L60.31 19.19L62.55 19.19L62.54 19.91ZM58.32 22.79Q59.47 22.79 59.47 21.70L59.47 21.70Q59.47 20.93 58.97 20.45Q58.48 19.98 57.65 19.98L57.65 19.98Q57.11 19.98 56.81 20.24Q56.52 20.51 56.52 21.04L56.52 21.04Q56.52 21.83 57.01 22.31Q57.51 22.79 58.32 22.79L58.32 22.79Z"></path></g><!----><!----></svg>